<svg xmlns="http://www.w3.org/2000/svg" version="1.0" width="809.000000pt" height="308.000000pt" viewBox="0 0 809.000000 308.000000" preserveAspectRatio="xMidYMid meet">

    <g transform="translate(0.000000,308.000000) scale(0.100000,-0.100000)" fill="#000000" stroke="none">
        <path xmlns="http://www.w3.org/2000/svg" fill="#ff723a" d="M1421 3000 c-36 -28 -66 -50 -68 -50 -2 0 -20 7 -41 15 l-37 16 30 -25 c30 -24 30 -25 10 -41 -59 -47 -64 -49 -105 -35 -22 7 -40 15 -40 18 0 2 24 34 53 70 57 73 37 66 -33 -11 -40 -44 -47 -48 -79 -43 -32 5 -33 4 -13 -6 29 -15 28 -22 -10 -64 -31 -33 -36 -35 -75 -28 -24 3 -43 10 -43 15 0 5 16 38 36 74 20 36 33 65 30 65 -3 0 -26 -31 -52 -69 l-46 -69 -41 4 c-41 4 -41 4 -12 -7 17 -7 32 -13 34 -15 2 -2 -10 -24 -25 -49 -26 -40 -33 -45 -66 -45 -20 0 -39 4 -42 9 -3 5 6 39 19 76 14 37 24 69 22 72 -2 2 -21 -30 -42 -72 -35 -72 -38 -75 -71 -75 -21 0 -33 -4 -29 -10 3 -5 15 -10 26 -10 23 0 24 -8 3 -59 -14 -34 -21 -40 -55 -46 -22 -4 -43 -4 -46 -1 -4 4 -1 36 6 72 8 36 11 67 9 70 -3 2 -15 -30 -28 -72 -12 -41 -27 -77 -34 -79 -6 -1 -27 -8 -46 -14 l-35 -11 37 6 c20 2 39 1 42 -4 2 -4 0 -28 -6 -51 -9 -35 -17 -46 -44 -57 -60 -25 -63 -23 -58 69 4 92 -1 87 -19 -22 l-12 -74 -43 -15 c-52 -17 -51 -24 0 -13 20 5 39 7 40 5 2 -2 2 -25 -2 -51 -4 -40 -10 -50 -38 -66 -48 -28 -62 -18 -62 45 0 29 -5 60 -10 68 -7 10 -10 -12 -10 -71 l0 -86 -40 -18 c-49 -22 -46 -32 3 -11 19 8 38 12 41 8 3 -3 6 -27 6 -53 0 -43 -3 -49 -35 -69 -33 -21 -55 -20 -55 2 0 15 -31 120 -35 116 -2 -2 3 -39 11 -82 12 -73 12 -80 -4 -92 -9 -6 -28 -21 -42 -33 l-25 -22 43 21 c24 12 45 20 47 18 2 -2 7 -26 10 -54 7 -48 6 -52 -26 -79 l-34 -28 -32 69 c-38 82 -41 76 -11 -18 l22 -68 -34 -35 c-37 -38 -33 -47 7 -15 14 11 29 20 33 20 4 0 15 -20 24 -45 l17 -44 -26 -36 c-15 -19 -30 -35 -34 -35 -3 0 -22 25 -41 54 -19 30 -36 53 -38 51 -2 -1 11 -31 29 -66 27 -54 30 -66 19 -84 -43 -69 -44 -71 -11 -37 18 17 34 32 36 32 3 0 15 -21 28 -46 l24 -47 -21 -38 c-12 -22 -24 -39 -28 -39 -4 0 -26 23 -49 50 -56 67 -63 55 -9 -16 38 -51 42 -60 33 -83 -6 -14 -14 -35 -18 -46 l-7 -20 17 20 c9 11 20 27 25 35 8 12 14 10 35 -15 34 -41 39 -66 21 -110 l-16 -37 -49 41 c-69 58 -75 51 -12 -13 53 -54 53 -54 41 -91 -15 -45 -7 -57 10 -15 7 16 15 30 19 30 4 0 23 -14 44 -31 34 -28 37 -35 32 -63 -14 -70 -10 -68 -81 -30 -35 20 -64 34 -64 31 0 -2 27 -23 61 -47 60 -42 61 -43 57 -85 -3 -49 6 -51 16 -4 6 30 7 31 28 17 13 -8 33 -21 46 -29 18 -11 22 -23 22 -61 0 -27 -4 -48 -10 -48 -5 0 -33 9 -62 20 -75 28 -71 16 6 -22 64 -31 66 -33 68 -73 1 -37 2 -37 5 -7 5 37 13 38 69 13 37 -17 42 -23 47 -62 3 -24 4 -45 2 -47 -2 -3 -32 1 -66 7 -35 6 -64 9 -66 7 -2 -2 29 -14 69 -27 72 -24 73 -24 79 -64 l6 -40 2 38 c1 38 1 38 34 32 63 -14 76 -23 86 -62 6 -21 11 -41 11 -45 0 -5 -28 -9 -62 -9 l-63 -2 69 -11 c66 -11 70 -13 83 -46 l13 -35 -6 32 c-5 32 -4 33 28 33 58 0 78 -11 99 -52 11 -22 19 -42 17 -44 -3 -2 -36 -8 -74 -13 l-69 -8 78 -2 c76 -1 78 -2 98 -34 l20 -32 -6 33 -7 32 56 0 c49 0 57 -3 75 -29 29 -41 27 -49 -21 -61 -24 -6 -54 -15 -68 -20 -22 -7 -22 -9 -4 -9 11 -1 47 4 79 11 58 11 58 11 83 -18 22 -26 23 -22 6 20 -4 10 9 17 47 25 50 11 53 11 81 -16 15 -15 28 -32 28 -37 0 -6 -30 -24 -65 -40 -36 -16 -64 -31 -62 -32 2 -2 37 7 77 21 l74 25 21 -20 c28 -26 43 -26 20 0 -22 24 -16 31 43 54 43 16 43 16 77 -11 19 -16 35 -30 35 -33 0 -3 -15 -13 -32 -23 -18 -10 -46 -29 -63 -43 -37 -31 -12 -23 64 20 53 29 54 29 85 12 30 -17 30 -17 13 1 -9 11 -17 22 -17 25 0 4 20 18 45 33 l46 26 34 -21 c19 -12 35 -25 35 -28 0 -4 -26 -31 -57 -61 -62 -56 -33 -46 45 17 l44 35 36 -17 37 -17 -28 23 -29 23 41 33 c46 37 49 37 97 17 l36 -15 -39 -47 c-68 -84 -68 -89 0 -24 l66 65 38 -12 c34 -10 36 -10 19 3 -11 8 -23 15 -28 15 -16 0 -7 20 24 55 28 33 35 36 67 30 20 -4 39 -9 44 -12 4 -2 -11 -39 -34 -80 -51 -92 -39 -89 25 7 l47 70 42 -5 c41 -5 41 -5 10 5 -40 13 -40 19 -7 70 25 38 29 40 67 35 22 -3 42 -7 44 -9 2 -1 -8 -33 -22 -70 -35 -93 -31 -94 16 -3 l39 77 48 1 47 1 -39 9 c-22 5 -41 11 -43 13 -2 2 6 24 18 49 20 40 27 47 61 52 22 4 42 5 44 2 3 -3 -1 -39 -9 -81 -17 -93 -10 -89 23 12 21 66 28 77 50 80 14 2 29 7 33 11 4 4 -6 6 -24 3 -31 -5 -31 -4 -24 29 13 58 23 77 44 83 66 19 60 25 63 -66 l3 -83 15 89 15 89 40 13 40 13 -37 -2 c-21 -1 -37 1 -38 6 -3 75 0 88 33 107 47 29 55 25 62 -28 13 -100 25 -111 22 -20 l-3 87 38 17 c53 24 58 37 7 19 -23 -8 -43 -15 -45 -15 -2 0 -4 24 -4 54 0 52 2 56 36 77 37 23 52 17 55 -21 0 -8 7 -33 15 -55 l14 -40 -6 54 c-3 30 -8 66 -10 81 -5 23 0 31 31 50 20 12 34 25 31 27 -3 3 -17 -2 -30 -11 -37 -24 -42 -21 -54 32 -10 46 -10 48 21 79 17 18 34 33 37 33 4 0 20 -29 35 -65 15 -36 29 -64 31 -62 2 2 -6 36 -18 76 l-21 72 26 27 c35 36 35 50 1 23 -15 -12 -30 -21 -34 -21 -15 0 -41 89 -32 107 12 21 51 58 56 52 1 -2 19 -29 40 -59 44 -67 46 -60 4 24 l-32 65 28 43 29 43 -35 -33 -35 -33 -26 45 -25 46 21 40 c12 22 25 40 29 40 4 0 26 -23 49 -50 56 -67 63 -55 9 16 -38 51 -42 60 -33 83 6 14 14 35 18 46 l7 20 -17 -20 c-9 -11 -20 -27 -25 -35 -8 -12 -14 -10 -35 15 -42 50 -44 57 -24 103 l19 43 48 -40 c69 -58 76 -51 12 14 -53 54 -54 54 -42 92 14 46 9 54 -8 13 -16 -38 -28 -38 -69 4 -26 27 -31 38 -26 62 16 68 11 66 69 34 75 -43 80 -37 10 14 -56 41 -61 47 -57 77 3 32 3 32 -7 9 -16 -35 -15 -35 -59 -4 -38 27 -41 32 -41 77 0 26 4 47 10 47 5 0 33 -9 61 -20 74 -29 71 -19 -6 21 -63 32 -65 34 -66 74 -1 25 -3 31 -6 15 -8 -51 -10 -52 -61 -26 -39 20 -51 31 -56 57 -11 59 -10 62 32 56 20 -4 53 -9 72 -12 21 -3 4 6 -40 22 -66 25 -76 31 -81 58 l-7 30 -1 -27 c-1 -32 -4 -32 -66 -16 -35 10 -47 18 -55 41 -22 65 -18 70 61 65 82 -6 73 7 -11 17 -66 8 -76 13 -89 45 l-10 25 0 -27 c-1 -30 -8 -32 -72 -22 -31 5 -40 13 -55 45 -9 22 -15 41 -13 43 2 2 36 9 74 14 l70 9 -82 2 c-81 1 -83 2 -98 31 -19 37 -28 39 -14 4 5 -15 8 -28 7 -30 -2 -1 -27 -4 -56 -5 -50 -3 -54 -1 -77 34 -14 20 -25 38 -25 41 0 2 21 9 48 15 53 11 104 29 85 30 -7 1 -44 -4 -82 -11 -68 -12 -70 -11 -91 13 -19 22 -20 22 -11 2 15 -31 16 -30 -40 -43 l-51 -13 -36 36 -35 36 72 32 c39 17 70 34 67 36 -2 2 -39 -8 -81 -22 l-77 -27 -26 24 -26 23 17 -28 c17 -26 17 -28 0 -34 -10 -3 -33 -12 -51 -19 -31 -13 -36 -12 -68 12 -19 15 -34 29 -34 33 0 3 27 23 60 45 34 21 59 41 56 43 -2 3 -34 -12 -71 -32 -61 -35 -69 -36 -93 -24 -43 21 -49 22 -24 4 31 -23 28 -31 -22 -60 l-45 -26 -43 22 -43 22 65 58 c79 72 68 77 -19 9z m208 -126 c1 -6 -17 -17 -39 -24 -33 -11 -44 -11 -65 0 -33 18 -32 25 12 54 l36 25 28 -22 c15 -12 28 -27 28 -33z m-220 -16 c-34 -26 -60 -31 -94 -18 l-30 12 38 33 39 33 35 -20 35 -21 -23 -19z m392 -35 c-40 -11 -46 -11 -72 8 -16 11 -29 23 -29 25 0 3 19 14 43 24 l42 20 29 -32 30 -32 -43 -13z m-585 26 c7 -12 -46 -58 -68 -59 -23 0 -48 10 -48 20 0 5 11 22 25 39 23 27 29 29 55 19 17 -5 33 -14 36 -19z m273 -8 c20 -13 5 -29 -35 -37 -45 -8 -55 2 -24 26 28 22 39 24 59 11z m210 -35 c-2 -2 -22 -6 -44 -8 -47 -4 -54 15 -15 36 22 11 28 11 44 -5 11 -10 18 -20 15 -23z m320 -2 c12 -19 21 -37 21 -40 0 -2 -22 -4 -48 -4 -39 0 -53 5 -72 25 l-23 24 24 9 c22 9 53 18 71 21 3 0 15 -15 27 -35z m-724 12 c18 -13 17 -14 -13 -30 -32 -17 -62 -21 -62 -9 0 9 42 53 50 53 3 0 15 -6 25 -14z m-267 -30 c3 -4 -7 -20 -23 -36 -21 -22 -38 -30 -62 -30 -39 0 -40 7 -13 53 19 33 23 34 56 27 20 -5 38 -11 42 -14z m859 -5 c11 -17 8 -19 -23 -23 -20 -2 -43 1 -51 8 -15 10 -14 12 3 22 29 17 58 14 71 -7z m-774 -19 c5 -2 -8 -15 -28 -29 -45 -30 -65 -19 -35 20 19 24 32 26 63 9z m1096 -53 c16 -45 16 -45 -31 -41 -29 3 -49 11 -60 25 -29 37 -23 47 31 47 46 0 50 -2 60 -31z m-130 -5 l12 -27 -43 7 c-24 4 -47 11 -52 16 -15 15 4 30 38 30 26 0 35 -6 45 -26z m-1239 -16 c0 -5 -9 -23 -21 -39 -14 -21 -29 -29 -50 -29 -33 0 -34 5 -15 52 13 31 18 34 50 30 20 -2 36 -9 36 -14z m78 -29 c-12 -16 -30 -29 -40 -29 -22 0 -22 3 -3 39 11 22 19 27 39 24 l25 -5 -21 -29z m1331 -55 c12 -26 11 -27 -20 -20 -61 12 -80 46 -26 46 27 0 36 -6 46 -26z m104 17 c16 -6 26 -20 31 -42 3 -18 4 -34 1 -37 -3 -3 -23 0 -45 7 -27 8 -45 21 -55 41 -8 16 -15 31 -15 35 0 8 57 6 83 -4z m-1583 -40 c0 -16 -41 -61 -56 -61 -16 0 -11 33 8 58 12 14 48 17 48 3z m-90 -6 c0 -2 -7 -20 -17 -39 -13 -29 -52 -56 -79 -56 -7 0 -4 24 7 63 9 35 12 37 49 37 22 0 40 -2 40 -5z m1722 -88 c10 -15 10 -47 1 -47 -20 0 -73 41 -73 56 0 13 6 15 32 10 18 -3 36 -12 40 -19z m109 -13 c11 -3 18 -18 21 -45 2 -22 2 -42 0 -44 -5 -5 -79 32 -85 42 -2 5 -7 21 -11 36 -7 28 -6 29 26 22 18 -4 40 -9 49 -11z m-1891 -25 c0 -26 -33 -68 -53 -69 -12 0 3 63 17 72 16 11 36 10 36 -3z m-90 -23 c0 -32 -23 -74 -46 -85 -35 -16 -35 -16 -32 36 3 49 6 52 71 62 4 0 7 -5 7 -13z m2008 -109 c4 -35 -12 -34 -49 3 -37 37 -30 55 14 37 23 -10 33 -21 35 -40z m96 -9 c26 -10 28 -13 22 -51 -4 -23 -9 -43 -11 -45 -2 -2 -20 8 -39 23 -29 22 -36 34 -36 62 0 30 3 34 18 28 9 -4 30 -12 46 -17z m-2134 -3 c0 -21 -32 -75 -44 -75 -23 0 -21 56 2 69 18 11 42 14 42 6z m-94 -81 c-6 -32 -49 -74 -62 -62 -3 3 -6 25 -7 48 -2 40 0 43 33 55 40 14 45 8 36 -41z m1734 -94 l0 -110 -265 0 -265 0 0 -645 0 -646 -112 3 -113 3 -3 643 -2 642 -254 0 c-222 0 -255 2 -260 16 -3 9 -6 51 -6 94 0 43 3 85 6 94 6 14 71 16 640 16 l634 0 0 -110z m481 54 c20 -10 29 -20 25 -30 -3 -9 -6 -23 -6 -32 0 -12 -8 -8 -30 13 -16 16 -30 37 -30 47 0 22 3 22 41 2z m-2229 -71 c-10 -56 -37 -70 -44 -22 -4 22 1 34 15 44 27 19 35 12 29 -22z m2327 15 c20 -12 37 -22 39 -24 2 -1 -2 -21 -8 -43 l-11 -41 -34 26 c-29 22 -35 33 -35 65 0 22 3 39 6 39 4 0 23 -10 43 -22z m-2431 -138 c-27 -22 -34 -17 -43 32 -7 34 -5 39 26 58 l34 20 3 -45 c3 -38 -1 -49 -20 -65z m2430 -2 c11 -13 6 -58 -6 -58 -17 0 -42 37 -42 62 0 25 3 27 18 19 10 -5 24 -16 30 -23z m-2398 -62 c0 -18 -7 -39 -15 -46 -12 -10 -16 -8 -25 15 -13 34 -13 38 2 53 22 22 38 13 38 -22z m2476 -1 l34 -26 -15 -36 c-21 -49 -20 -49 -49 -17 -25 29 -32 58 -20 88 8 21 11 20 50 -9z m-2544 -62 c4 -27 -1 -46 -14 -66 -23 -32 -33 -29 -48 19 -11 32 -10 38 11 60 32 34 46 30 51 -13z m2507 -57 c19 -20 20 -27 10 -50 -7 -14 -15 -26 -19 -26 -11 0 -30 48 -30 75 0 31 10 31 39 1z m-2485 -62 c8 -32 -2 -66 -17 -61 -21 7 -32 54 -17 71 18 23 27 20 34 -10z m2572 -89 c-22 -41 -30 -41 -56 0 -17 27 -17 33 -4 64 l15 35 32 -32 32 -32 -19 -35z m-2625 5 c10 -33 9 -43 -5 -65 -9 -14 -20 -25 -24 -25 -4 0 -17 17 -29 38 l-22 39 27 26 c15 15 30 27 34 27 4 0 13 -18 19 -40z m2561 -58 c15 -26 15 -29 -2 -52 l-19 -25 -10 28 c-26 67 -2 104 31 49z m-2521 -49 c10 -28 5 -73 -9 -73 -4 0 -15 13 -24 28 -16 26 -16 31 -2 50 19 28 22 28 35 -5z m2582 -44 c9 -17 17 -36 17 -42 0 -12 -40 -57 -50 -57 -4 0 -13 18 -20 40 -11 34 -11 42 4 65 21 32 27 32 49 -6z m-2614 -107 c-16 -43 -21 -44 -50 -16 -35 33 -36 46 -8 86 l21 29 23 -37 c18 -30 21 -44 14 -62z m2544 -6 c8 -23 6 -32 -11 -48 l-20 -20 -7 31 c-14 63 19 95 38 37z m-2483 -82 c0 -34 -14 -37 -40 -9 -21 22 -22 28 -11 52 l13 28 19 -24 c10 -13 19 -34 19 -47z m2530 -22 c12 -31 11 -35 -15 -62 -15 -16 -31 -27 -36 -25 -4 3 -10 23 -14 46 -6 34 -3 44 16 65 25 27 30 24 49 -24z m-2575 -37 c21 -27 25 -41 20 -65 -8 -37 -16 -37 -55 -2 -31 27 -31 27 -15 65 8 20 17 37 20 37 2 0 16 -16 30 -35z m2489 -56 c5 -21 1 -30 -19 -43 l-25 -16 0 38 c0 38 18 69 31 55 3 -5 9 -20 13 -34z m-2410 -44 c16 -25 22 -65 9 -65 -5 1 -18 9 -31 20 -17 14 -21 25 -16 44 8 32 17 33 38 1z m2429 -32 c19 -69 18 -72 -15 -93 -24 -14 -34 -16 -40 -7 -15 23 -8 71 14 94 26 28 35 29 41 6z m-2414 -119 c1 -43 -6 -46 -50 -21 -36 21 -38 24 -33 57 10 52 13 53 49 23 24 -20 34 -37 34 -59z m2323 16 c4 -23 -1 -33 -19 -45 -22 -15 -23 -15 -23 18 0 55 35 77 42 27z m-2232 -92 c0 -22 -3 -22 -40 -3 -29 15 -41 51 -23 68 10 11 63 -44 63 -65z m2240 -7 c0 -16 3 -37 6 -45 4 -12 -4 -20 -30 -31 -49 -21 -49 -20 -43 27 9 64 67 107 67 49z m-2257 -53 c21 -15 27 -27 27 -55 0 -29 -3 -34 -17 -28 -10 4 -30 12 -45 17 -24 8 -28 16 -28 47 0 57 5 59 63 19z m2157 -18 c0 -23 -6 -33 -25 -42 -34 -15 -39 -7 -21 36 19 45 46 48 46 6z m-2032 -89 c3 -21 2 -21 -30 -8 -27 11 -34 20 -36 47 l-4 34 34 -26 c18 -14 34 -35 36 -47z m2020 -28 c-3 -44 -5 -48 -36 -57 -41 -11 -45 -7 -36 38 4 25 15 41 33 51 39 21 42 19 39 -32z m-113 -35 c-8 -36 -20 -48 -48 -48 -17 0 -17 2 -1 33 29 55 59 65 49 15z m-1920 8 c25 -11 36 -23 43 -48 10 -39 8 -41 -44 -30 -37 7 -39 10 -45 50 -6 47 -3 48 46 28z m143 -75 c17 -21 15 -31 -9 -31 -34 0 -59 19 -59 45 0 23 2 24 28 13 15 -7 33 -19 40 -27z m1756 -38 c-14 -63 -14 -63 -55 -63 -21 0 -39 2 -39 5 0 12 33 70 44 77 6 4 21 8 34 8 19 0 22 -4 16 -27z m-121 -25 c-8 -32 -23 -48 -44 -48 -23 0 -23 4 -2 41 21 36 54 40 46 7z m-1620 -8 c18 0 56 -65 44 -76 -3 -4 -27 -3 -52 0 -33 5 -45 12 -45 24 0 9 -3 28 -7 41 -5 22 -4 23 18 18 13 -4 32 -7 42 -7z m143 -51 c23 -19 16 -29 -21 -29 -33 0 -55 20 -55 49 0 12 55 -2 76 -20z m1431 -71 c-13 -32 -17 -34 -56 -30 -43 4 -43 5 -9 54 19 28 71 42 76 21 2 -6 -3 -26 -11 -45z m-107 37 c0 -2 -5 -16 -12 -30 -8 -19 -19 -25 -41 -25 l-31 0 29 30 c25 26 55 40 55 25z m-1256 -67 c10 -16 16 -31 14 -33 -1 -2 -23 -5 -46 -6 -38 -3 -46 0 -58 21 -24 45 -19 56 29 52 36 -3 47 -9 61 -34z m112 1 c20 -16 8 -29 -28 -29 -28 0 -57 22 -58 44 0 12 68 0 86 -15z m968 -17 c3 -5 -5 -20 -17 -35 -16 -20 -28 -25 -44 -21 -30 8 -29 15 10 42 34 24 43 26 51 14z m126 -8 c0 -4 -10 -23 -22 -43 -12 -20 -22 -37 -23 -38 -3 -5 -75 18 -75 24 0 4 12 20 27 35 19 20 37 28 60 28 18 0 33 -3 33 -6z m-1019 -56 c25 -30 24 -35 -8 -42 -16 -4 -35 -9 -44 -12 -11 -3 -24 7 -38 29 -12 19 -21 37 -21 41 0 3 21 6 46 6 35 0 50 -5 65 -22z m113 16 c26 -10 18 -23 -19 -30 -34 -6 -65 7 -65 27 0 10 60 12 84 3z m596 -12 c0 -20 -46 -51 -68 -45 -29 7 -28 14 6 35 29 18 62 23 62 10z m-406 -18 c24 -9 19 -20 -13 -34 -25 -10 -34 -9 -52 4 -23 16 -21 19 26 29 11 3 21 5 22 6 1 0 8 -2 17 -5z m504 0 c28 -8 28 -13 -5 -52 -27 -31 -30 -32 -60 -20 -40 15 -41 22 -5 53 29 26 35 28 70 19z m-294 -13 c7 -10 -36 -41 -57 -41 -7 0 -18 5 -25 12 -10 10 -7 15 10 25 27 14 64 17 72 4z m-294 -51 c0 -4 -19 -14 -42 -24 l-42 -16 -23 27 c-12 16 -22 31 -23 34 0 3 19 10 43 16 36 8 45 7 65 -11 12 -11 22 -23 22 -26z m396 15 c18 -14 18 -16 -16 -45 -19 -16 -37 -30 -40 -30 -3 0 -18 11 -34 23 l-29 23 34 21 c41 26 59 28 85 8z m-206 -13 l23 -19 -35 -21 c-42 -26 -47 -27 -75 -3 -30 25 -29 35 5 48 40 16 57 15 82 -5z" style="&#10;"/>
        <path d="M3132 1599 l3 -462 47 -1 48 -1 2 408 c2 262 7 407 13 408 6 1 71 -175 145 -390 l135 -391 56 0 c52 0 57 2 67 28 6 15 67 189 134 386 68 198 129 361 136 364 9 3 12 -85 12 -402 l0 -406 50 0 50 0 0 460 0 461 -91 -3 -91 -3 -129 -379 c-71 -209 -131 -381 -134 -384 -3 -3 -7 -3 -8 -1 -2 2 -61 176 -132 387 l-128 382 -93 0 -94 0 2 -461z"/>
        <path d="M5150 2015 l0 -45 140 0 140 0 2 -416 3 -417 48 -1 47 -1 0 418 0 417 145 0 145 0 0 45 0 45 -335 0 -335 0 0 -45z"/>
        <path d="M6568 1908 l-3 -103 -48 -3 -48 -3 3 -37 c3 -36 4 -37 50 -40 l47 -3 3 -237 c4 -266 11 -301 71 -338 26 -16 49 -19 130 -18 54 0 103 6 108 11 7 7 8 24 4 42 l-7 31 -78 -1 c-84 -3 -105 6 -121 48 -5 13 -9 121 -10 240 l-2 218 106 3 107 3 0 39 0 39 -107 3 -108 3 3 72 c2 40 1 86 -3 103 -6 28 -10 30 -50 30 l-44 0 -3 -102z"/>
        <path d="M7180 1806 c-143 -30 -200 -126 -200 -333 0 -195 48 -296 157 -334 49 -17 207 -17 256 0 109 38 157 139 157 334 0 159 -42 267 -118 306 -37 19 -137 42 -176 40 -12 0 -46 -6 -76 -13z m189 -95 c62 -32 76 -78 76 -246 0 -161 -14 -204 -75 -239 -48 -28 -162 -28 -210 0 -61 35 -75 78 -75 239 0 166 14 214 74 245 50 27 159 27 210 1z"/>
        <path d="M4488 1786 c-31 -13 -73 -33 -93 -45 -49 -29 -55 -27 -55 19 l0 40 -45 0 -45 0 0 -330 0 -330 45 0 45 0 2 242 3 242 40 23 c22 13 77 35 123 49 l82 26 0 44 c0 39 -3 44 -22 44 -13 0 -49 -11 -80 -24z"/>
        <path d="M7985 1796 c-22 -7 -65 -26 -95 -42 -30 -16 -58 -30 -62 -32 -5 -2 -8 15 -8 37 l0 41 -50 0 -50 0 0 -330 0 -330 50 0 50 0 0 246 0 245 63 29 c34 15 88 36 120 45 l57 16 0 45 c0 50 -6 52 -75 30z"/>
        <path d="M5810 1598 c1 -406 32 -473 225 -473 66 1 90 5 139 28 32 15 60 27 62 27 2 0 4 -9 4 -20 0 -20 0 -20 86 -20 3 0 6 148 7 330 l2 330 -47 0 -48 0 0 -269 c0 -203 -3 -271 -12 -278 -50 -39 -204 -56 -257 -28 -49 25 -55 57 -59 328 l-4 247 -49 0 -49 0 0 -202z"/>
        <path d="M4630 1210 l0 -70 55 0 55 0 0 70 0 70 -55 0 -55 0 0 -70z"/>
    </g>
</svg>